<svg width="12" height="22" viewBox="0 0 12 22" fill="none" xmlns="http://www.w3.org/2000/svg">
<path d="M10.102 5V16.5C10.102 18.71 8.20236 20.5 5.85706 20.5C3.51175 20.5 1.61216 18.71 1.61216 16.5V4C1.61216 2.62 2.80073 1.5 4.26522 1.5C5.72971 1.5 6.91828 2.62 6.91828 4V14.5C6.91828 15.05 6.44073 15.5 5.85706 15.5C5.27339 15.5 4.79583 15.05 4.79583 14.5V5H3.204V14.5C3.204 15.88 4.39257 17 5.85706 17C7.32155 17 8.51012 15.88 8.51012 14.5V4C8.51012 1.79 6.61053 0 4.26522 0C1.91992 0 0.0203247 1.79 0.0203247 4V16.5C0.0203247 19.54 2.63094 22 5.85706 22C9.08318 22 11.6938 19.54 11.6938 16.5V5H10.102Z" fill="#DADADA" fill-opacity="0.53"/>
</svg>
