<svg width="27" height="24" viewBox="0 0 27 24" fill="none" xmlns="http://www.w3.org/2000/svg">
<g id="sentiment_satisfied_alt_24px">
<path id="icon/communication/sentiment_satisfied_alt_24px" fill-rule="evenodd" clip-rule="evenodd" d="M13.5607 2C7.70278 2 2.95911 6.48 2.95911 12C2.95911 17.52 7.70278 22 13.5607 22C19.4293 22 24.1836 17.52 24.1836 12C24.1836 6.48 19.4293 2 13.5607 2ZM9.85706 8C8.97791 8 8.26522 8.67157 8.26522 9.5C8.26522 10.3284 8.97791 11 9.85706 11C10.7362 11 11.4489 10.3284 11.4489 9.5C11.4489 8.67157 10.7362 8 9.85706 8ZM17.2856 8C16.4065 8 15.6938 8.67157 15.6938 9.5C15.6938 10.3284 16.4065 11 17.2856 11C18.1648 11 18.8775 10.3284 18.8775 9.5C18.8775 8.67157 18.1648 8 17.2856 8ZM9.91013 14C10.653 15.19 12.0007 16 13.5714 16C15.142 16 16.5003 15.19 17.2326 14H19.0048C18.1558 16.05 16.044 17.5 13.5714 17.5C11.0987 17.5 8.98686 16.05 8.13788 14H9.91013ZM5.08155 12C5.08155 16.42 8.88074 20 13.5714 20C18.262 20 22.0611 16.42 22.0611 12C22.0611 7.58 18.262 4 13.5714 4C8.88074 4 5.08155 7.58 5.08155 12Z" fill="#777777"/>
</g>
</svg>
