<svg width="27" height="24" viewBox="0 0 27 24" fill="none" xmlns="http://www.w3.org/2000/svg">
<g id="settings_voice_24px">
<path id="icon/action/settings_voice_24px" fill-rule="evenodd" clip-rule="evenodd" d="M16.8369 9.5C16.8369 11.16 15.4148 12.5 13.6532 12.5C11.8915 12.5 10.4695 11.16 10.4695 9.5V3.5C10.4695 1.84 11.8915 0.5 13.6532 0.5C15.4148 0.5 16.8369 1.84 16.8369 3.5V9.5ZM10.4695 21.5H8.34706V23.5H10.4695V21.5ZM12.592 3.5C12.592 2.95 13.0695 2.5 13.6532 2.5C14.2369 2.5 14.7144 2.95 14.7144 3.5V9.5C14.7144 10.06 14.2475 10.5 13.6532 10.5C13.0695 10.5 12.592 10.05 12.592 9.5V3.5ZM14.7144 23.5V21.5H12.592V23.5H14.7144ZM16.8369 21.5H18.9593V23.5H16.8369V21.5ZM19.2777 9.5H21.0818C21.0818 12.91 18.1952 15.73 14.7144 16.22V19.5H12.592V16.22C9.11114 15.73 6.22461 12.91 6.22461 9.5H8.02869C8.02869 12.5 10.7242 14.6 13.6532 14.6C16.5822 14.6 19.2777 12.5 19.2777 9.5Z" fill="#E5E5E5"/>
</g>
</svg>
